<svg width="14" height="14" viewBox="0 0 14 14" fill="none" xmlns="http://www.w3.org/2000/svg">
<path d="M13.829 0.170792C13.7196 0.061434 13.5712 0 13.4165 0C13.2619 0 13.1135 0.061434 13.0041 0.170792L6.99988 6.17504L0.995625 0.170792C0.886234 0.061434 0.737888 0 0.583209 0C0.42853 0 0.280183 0.061434 0.170792 0.170792V0.170792C0.061434 0.280183 0 0.42853 0 0.583209C0 0.737888 0.061434 0.886234 0.170792 0.995625L6.17504 6.99988L0.170792 13.0041C0.061434 13.1135 0 13.2619 0 13.4165C0 13.5712 0.061434 13.7196 0.170792 13.829V13.829C0.280183 13.9383 0.42853 13.9998 0.583209 13.9998C0.737888 13.9998 0.886234 13.9383 0.995625 13.829L6.99988 7.82471L13.0041 13.829C13.1135 13.9383 13.2619 13.9998 13.4165 13.9998C13.5712 13.9998 13.7196 13.9383 13.829 13.829C13.9383 13.7196 13.9998 13.5712 13.9998 13.4165C13.9998 13.2619 13.9383 13.1135 13.829 13.0041L7.82471 6.99988L13.829 0.995625C13.9383 0.886234 13.9998 0.737888 13.9998 0.583209C13.9998 0.42853 13.9383 0.280183 13.829 0.170792V0.170792Z" fill="#FFCE33"/>
</svg>
